<?xml version="1.0" encoding="UTF-8"?>
<svg id="_레이어_2" data-name="레이어 2" xmlns="http://www.w3.org/2000/svg" xmlns:xlink="http://www.w3.org/1999/xlink" viewBox="0 0 708.4 753.68">
  <defs>
    <style>
      .cls-1 {
        fill: #d90b1d;
      }

      .cls-2 {
        fill: #bfcdcd;
      }

      .cls-3 {
        fill: #fabb17;
      }

      .cls-4 {
        fill: #545c69;
      }

      .cls-5 {
        fill: #91afc0;
      }

      .cls-6 {
        fill: none;
      }

      .cls-7 {
        fill: #afb5b3;
      }

      .cls-8 {
        fill: #e5e5e5;
      }

      .cls-9 {
        fill: #9d5c1a;
      }

      .cls-10 {
        fill: #8f030e;
      }

      .cls-11 {
        fill: #222;
      }

      .cls-12 {
        fill: #f84040;
      }

      .cls-13 {
        fill: #38a4e3;
      }

      .cls-14 {
        fill: #efefef;
      }

      .cls-15 {
        font-family: Galmuri9-Regular, Galmuri9;
        font-size: 17px;
      }

      .cls-16 {
        clip-path: url(#clippath);
      }
    </style>
    <clipPath id="clippath">
      <rect class="cls-6" x="444.12" y="244.99" width="264.28" height="103.33"/>
    </clipPath>
  </defs>
  <g id="_레이어_1-2" data-name="레이어 1">
    <g>
      <g>
        <g>
          <g>
            <g>
              <g>
                <rect class="cls-11" x="245.21" y="41.84" width="107.39" height="23.71" transform="translate(245.21 352.6) rotate(-90)"/>
                <rect class="cls-7" y="25.6" width="597.81" height="23.71"/>
              </g>
              <g>
                <rect class="cls-9" x="64.21" y="448.96" width="431.84" height="22.02"/>
                <rect class="cls-9" x="42.2" y="426.94" width="22.02" height="22.02"/>
              </g>
              <g>
                <g>
                  <g>
                    <g>
                      <polygon class="cls-12" points="462.74 285.45 462.43 300.36 444.02 300.36 444.02 373.67 51.22 373.67 51.22 349.68 122.68 349.68 122.68 175.1 146.81 175.1 146.81 141.94 247.15 141.94 247.15 102.37 369.08 102.37 369.08 141.94 422.43 141.94 422.43 175.1 444.02 175.1 444.02 202.87 633.93 202.87 633.93 148.86 668.93 148.86 668.93 202.87 707.51 202.87 707.51 263.83 668.93 263.83 668.93 323.86 633.93 323.86 633.93 284.73 514.43 285.57 462.74 285.45"/>
                      <rect class="cls-10" x="96.97" y="373.67" width="322.61" height="25.55"/>
                      <rect class="cls-1" x="247.15" y="102.37" width="121.93" height="20.66"/>
                    </g>
                    <polygon class="cls-3" points="242.3 174.32 242.3 358.34 51.22 358.34 51.22 308.45 146.76 308.45 146.76 208.92 120.98 208.92 120.98 174.32 242.3 174.32"/>
                  </g>
                  <g>
                    <rect class="cls-13" x="370.87" y="399.22" width="24.84" height="49.74"/>
                    <rect class="cls-4" x="370.87" y="399.22" width="24.84" height="24.87"/>
                  </g>
                  <g>
                    <rect class="cls-13" x="121.94" y="399.22" width="24.84" height="49.74"/>
                    <rect class="cls-4" x="121.94" y="399.22" width="24.84" height="24.87"/>
                  </g>
                </g>
                <polygon class="cls-5" points="211.27 208.92 211.27 308.84 51.24 308.84 51.24 286.4 63.15 286.4 63.15 256.62 76.7 256.62 76.7 229.18 92.73 229.18 92.73 208.92 211.27 208.92"/>
              </g>
            </g>
            <g>
              <rect class="cls-2" x="167.03" y="208.92" width="44.24" height="47.67"/>
              <rect class="cls-2" x="144.91" y="230.25" width="44.24" height="47.67"/>
              <rect class="cls-2" x="121.94" y="256.59" width="44.24" height="47.67"/>
              <rect class="cls-2" x="99.82" y="286.66" width="44.24" height="21.91"/>
            </g>
          </g>
          <g>
            <rect class="cls-1" x="419.58" y="300.92" width="24.53" height="72.75"/>
            <rect class="cls-1" x="394.98" y="325.03" width="24.53" height="72.75" transform="translate(45.84 768.65) rotate(-90)"/>
            <g class="cls-16">
              <g>
                <g>
                  <g>
                    <rect class="cls-1" x="287.15" y=".22" width="23.71" height="107.39"/>
                    <rect class="cls-1" x=".1" y="25.82" width="597.81" height="23.71"/>
                  </g>
                  <g>
                    <rect class="cls-1" x="64.31" y="449.17" width="431.84" height="22.02"/>
                    <rect class="cls-1" x="42.3" y="427.16" width="22.02" height="22.02"/>
                  </g>
                  <g>
                    <g>
                      <g>
                        <g>
                          <polygon class="cls-1" points="462.84 285.67 462.53 300.58 444.12 300.58 444.12 373.89 51.32 373.89 51.32 349.9 122.78 349.9 122.78 175.32 146.91 175.32 146.91 142.15 247.25 142.15 247.25 102.59 369.18 102.59 369.18 142.15 422.53 142.15 422.53 175.32 444.12 175.32 444.12 203.08 634.03 203.08 634.03 149.08 669.03 149.08 669.03 203.08 707.61 203.08 707.61 264.05 669.03 264.05 669.03 324.08 634.03 324.08 634.03 284.94 514.53 285.79 462.84 285.67"/>
                          <rect class="cls-1" x="97.07" y="373.89" width="322.61" height="25.55"/>
                          <rect class="cls-1" x="247.25" y="102.59" width="121.93" height="20.66"/>
                        </g>
                        <polygon class="cls-1" points="242.4 174.54 242.4 358.55 51.32 358.55 51.32 308.66 146.86 308.66 146.86 209.13 121.08 209.13 121.08 174.54 242.4 174.54"/>
                      </g>
                      <g>
                        <rect class="cls-1" x="370.97" y="399.44" width="24.84" height="49.74"/>
                        <rect class="cls-1" x="370.97" y="399.44" width="24.84" height="24.87"/>
                      </g>
                      <g>
                        <rect class="cls-1" x="122.04" y="399.44" width="24.84" height="49.74"/>
                        <rect class="cls-1" x="122.04" y="399.44" width="24.84" height="24.87"/>
                      </g>
                    </g>
                    <polygon class="cls-1" points="211.37 209.13 211.37 309.06 51.34 309.06 51.34 286.61 63.25 286.61 63.25 256.84 76.8 256.84 76.8 229.39 92.83 229.39 92.83 209.13 211.37 209.13"/>
                  </g>
                </g>
                <g>
                  <rect class="cls-12" x="167.13" y="209.13" width="44.24" height="47.67"/>
                  <rect class="cls-12" x="145.01" y="230.47" width="44.24" height="47.67"/>
                  <rect class="cls-12" x="122.04" y="256.8" width="44.24" height="47.67"/>
                  <rect class="cls-12" x="99.92" y="286.88" width="44.24" height="21.91"/>
                </g>
              </g>
            </g>
          </g>
        </g>
        <g>
          <path class="cls-3" d="M266.94,254.09v-77.86h8.65v34.61h8.65v8.65h-8.65v34.61h-8.65ZM284.25,210.83v-8.65h8.65v8.65h-8.65ZM284.25,219.48h8.65v8.65h-8.65v-8.65ZM301.55,202.18h-8.65v-17.3h8.65v17.3ZM301.55,228.13v17.3h-8.65v-17.3h8.65ZM301.55,184.88v-8.65h8.65v8.65h-8.65ZM301.55,245.44h8.65v8.65h-8.65v-8.65Z"/>
          <path class="cls-3" d="M318.85,184.88v-8.65h43.26v8.65h-17.3v69.21h-8.65v-69.21h-17.3Z"/>
          <path class="cls-3" d="M266.94,357.91v-77.86h8.65v69.21h25.96v8.65h-34.61Z"/>
          <path class="cls-3" d="M310.2,357.91v-34.61h8.65v-25.96h8.65v25.96h8.65v-25.96h8.65v25.96h8.65v34.61h-8.65v-25.96h-25.96v25.96h-8.65ZM327.5,297.35v-17.3h8.65v17.3h-8.65Z"/>
        </g>
      </g>
      <rect class="cls-14" x="93.56" y="562.07" width="364.08" height="191.61"/>
      <rect class="cls-8" x="308.31" y="562.07" width="149.32" height="191.61"/>
      <rect class="cls-8" x="289.19" y="562.07" width="19.13" height="19.16"/>
      <rect class="cls-8" x="289.19" y="600.39" width="19.13" height="19.16"/>
      <rect class="cls-8" x="289.19" y="638.71" width="19.13" height="19.16"/>
      <rect class="cls-8" x="289.19" y="677.03" width="19.13" height="19.16"/>
      <rect class="cls-8" x="289.19" y="715.36" width="19.13" height="19.16"/>
      <rect class="cls-8" x="270.06" y="581.23" width="19.13" height="19.16"/>
      <rect class="cls-8" x="270.06" y="619.55" width="19.13" height="19.16"/>
      <rect class="cls-8" x="270.06" y="657.87" width="19.13" height="19.16"/>
      <rect class="cls-8" x="270.06" y="696.2" width="19.13" height="19.16"/>
      <rect class="cls-8" x="270.06" y="734.52" width="19.13" height="19.16"/>
      <rect class="cls-11" x="93.56" y="539.3" width="22.77" height="22.77" transform="translate(209.89 1101.37) rotate(180)"/>
      <rect class="cls-11" x="116.33" y="516.52" width="22.77" height="22.77" transform="translate(255.44 1055.82) rotate(180)"/>
      <rect class="cls-11" x="139.11" y="493.75" width="22.77" height="22.77" transform="translate(300.99 1010.27) rotate(180)"/>
      <rect class="cls-11" x="161.88" y="470.97" width="22.77" height="22.77" transform="translate(346.54 964.72) rotate(180)"/>
      <rect class="cls-11" x="434.86" y="539.3" width="22.77" height="22.77"/>
      <rect class="cls-11" x="412.08" y="516.52" width="22.77" height="22.77"/>
      <rect class="cls-11" x="389.31" y="493.75" width="22.77" height="22.77"/>
      <rect class="cls-11" x="366.54" y="470.97" width="22.77" height="22.77"/>
      <text class="cls-15" transform="translate(124.92 606.35)"><tspan x="0" y="0">데니는 거리에서 주먹, 발, 흉기 등으로 </tspan><tspan x="-6.8" y="40">집중폭행을 당했다. 당시 현장을 상공에서</tspan><tspan x="-20.4" y="80">촬영하던 지역방송 헬기카메라가 실시간으로 </tspan><tspan x="-5.1" y="120">이 장면을 중계해 전 세계에 충격을 준다.</tspan></text>
    </g>
  </g>
</svg>